<?xml version="1.0" encoding="UTF-8" standalone="no"?>
<svg width="20px" height="20px" viewBox="0 0 20 20" version="1.1" xmlns="http://www.w3.org/2000/svg" xmlns:xlink="http://www.w3.org/1999/xlink" xmlns:sketch="http://www.bohemiancoding.com/sketch/ns">
    <!-- Generator: Sketch 3.3.1 (12005) - http://www.bohemiancoding.com/sketch -->
    <title>Artboard 1</title>
    <desc>Created with Sketch.</desc>
    <defs></defs>
    <g id="Page-1" stroke="none" stroke-width="1" fill="none" fill-rule="evenodd" sketch:type="MSPage">
        <g id="Artboard-1" sketch:type="MSArtboardGroup" fill="#FFFFFF">
            <g id="add-user" sketch:type="MSLayerGroup" transform="translate(1.000000, 1.000000)">
                <path d="M14.3901,17.2119418 C14.4,15.2856777 12.4227,14.1456624 10.5048,13.3150798 C8.5941,12.4881163 7.9839,11.7914402 7.9839,10.298563 C7.9839,9.40374141 8.5671,9.69507867 8.8227,8.05381848 C8.9307,7.37342837 9.4455,8.04296119 9.5445,6.48946408 C9.5445,5.87059861 9.2628,5.71678702 9.2628,5.71678702 C9.2628,5.71678702 9.4059,4.80025087 9.4617,4.09452708 C9.5193,3.35532665 9.1035,1.77830542 7.3908,1.29425129 C7.092,0.985723322 6.8895,0.496240542 7.8111,0.00585298727 C5.7951,-0.0882435176 5.3262,0.972151711 4.2525,1.75206697 C3.339,2.43607618 3.0924,3.51909076 3.1365,4.09543185 C3.195,4.80115564 3.3372,5.71769179 3.3372,5.71769179 C3.3372,5.71769179 3.0546,5.87150338 3.0546,6.49036886 C3.1536,8.04477074 3.6702,7.37433314 3.7773,8.05472325 C4.0329,9.69598344 4.617,9.40464619 4.617,10.2994678 C4.617,11.792345 4.4262,12.2990185 2.5146,13.125982 C0.5967,13.9556598 0,15.2856777 0.0099,17.2119418 C0.0126,17.7882829 0,18 0,18 L14.4,18 C14.4,18 14.3874,17.7882829 14.3901,17.2119418 L14.3901,17.2119418 Z" id="Shape" sketch:type="MSShapeGroup"></path>
                <rect id="Path" sketch:type="MSShapeGroup" x="13" y="5.5" width="2" height="7" rx="1"></rect>
                <rect id="Rectangle-3" sketch:type="MSShapeGroup" x="10.5" y="8" width="7" height="2" rx="1"></rect>
            </g>
        </g>
    </g>
</svg>