<?xml version="1.0" encoding="UTF-8" standalone="no"?>
<svg width="20px" height="52px" viewBox="0 0 20 52" version="1.1" xmlns="http://www.w3.org/2000/svg" xmlns:xlink="http://www.w3.org/1999/xlink" xmlns:sketch="http://www.bohemiancoding.com/sketch/ns">
    <!-- Generator: Sketch 3.3 (11970) - http://www.bohemiancoding.com/sketch -->
    <title>plus + logo-white</title>
    <desc>Created with Sketch.</desc>
    <defs></defs>
    <g id="Page-1" stroke="none" stroke-width="1" fill="none" fill-rule="evenodd" sketch:type="MSPage">
        <g id="plus-+-logo-white" sketch:type="MSLayerGroup" fill="#FFFFFF">
            <g id="plus" transform="translate(2.000000, 0.000000)" sketch:type="MSShapeGroup">
                <path d="M9,9 L14.9991283,9 C15.5553691,9 16,8.55228475 16,8 C16,7.44386482 15.5518945,7 14.9991283,7 L9,7 L9,1.00087166 C9,0.444630861 8.55228475,0 8,0 C7.44386482,0 7,0.448105505 7,1.00087166 L7,7 L1.00087166,7 C0.444630861,7 0,7.44771525 0,8 C0,8.55613518 0.448105505,9 1.00087166,9 L7,9 L7,14.9991283 C7,15.5553691 7.44771525,16 8,16 C8.55613518,16 9,15.5518945 9,14.9991283 L9,9 Z" id="Rectangle-1-Copy"></path>
            </g>
            <g id="logo-white" transform="translate(0.000000, 36.000000)" sketch:type="MSShapeGroup">
                <path d="M0.374117647,6.90962595 L6.81726406,10.3164222 L19.1976471,0.702352941 L6.81726406,15.2011405 L0.374117647,6.90962595 Z" id="Shape"></path>
            </g>
        </g>
    </g>
</svg>