<?xml version="1.0" encoding="UTF-8" standalone="no"?>
<svg width="24px" height="72px" viewBox="0 0 24 72" version="1.1" xmlns="http://www.w3.org/2000/svg" xmlns:xlink="http://www.w3.org/1999/xlink" xmlns:sketch="http://www.bohemiancoding.com/sketch/ns">
    <!-- Generator: Sketch 3.3.2 (12043) - http://www.bohemiancoding.com/sketch -->
    <title>Artboard 1</title>
    <desc>Created with Sketch.</desc>
    <defs></defs>
    <g id="Page-1" stroke="none" stroke-width="1" fill="none" fill-rule="evenodd" sketch:type="MSPage">
        <g id="Artboard-1" sketch:type="MSArtboardGroup">
            <g id="add" sketch:type="MSLayerGroup">
                <path d="M19,13 L13,13 L13,19 L11,19 L11,13 L5,13 L5,11 L11,11 L11,5 L13,5 L13,11 L19,11 L19,13 L19,13 Z" id="Shape" fill="#FFFFFF" sketch:type="MSShapeGroup"></path>
                <path d="M0,0 L24,0 L24,24 L0,24 L0,0 Z" id="Shape" sketch:type="MSShapeGroup"></path>
            </g>
            <g id="done" sketch:type="MSLayerGroup" transform="translate(0.000000, 48.000000)">
                <path d="M0,0 L24,0 L24,24 L0,24 L0,0 Z" id="Shape" sketch:type="MSShapeGroup"></path>
                <path d="M9,16.2 L4.8,12 L3.4,13.4 L9,19 L21,7 L19.6,5.6 L9,16.2 L9,16.2 Z" id="Shape" fill="#FFFFFF" sketch:type="MSShapeGroup"></path>
            </g>
        </g>
    </g>
</svg>