<?xml version="1.0" encoding="UTF-8" standalone="no"?>
<svg width="24px" height="24px" viewBox="0 0 24 24" version="1.1" xmlns="http://www.w3.org/2000/svg" xmlns:xlink="http://www.w3.org/1999/xlink" xmlns:sketch="http://www.bohemiancoding.com/sketch/ns">
    <!-- Generator: Sketch 3.3.3 (12081) - http://www.bohemiancoding.com/sketch -->
    <title>chrome</title>
    <desc>Created with Sketch.</desc>
    <defs></defs>
    <g id="Page-1" stroke="none" stroke-width="1" fill="none" fill-rule="evenodd" sketch:type="MSPage">
        <g id="chrome" sketch:type="MSArtboardGroup" fill="#AAAAAA">
            <g id="Group" sketch:type="MSLayerGroup">
                <path d="M12,18.141 C10.78125,18.141 9.672,17.8125 8.6715,17.157 C7.671,16.50075 6.921,15.657 6.4215,14.62575 L1.5,6 C0.46875,7.84425 0,9.90675 0,12 C0,15 0.9765,17.6175 2.9295,19.85175 C4.8825,22.086 7.3125,23.42175 10.21875,23.85975 L13.6995,17.8365 C13.34925,17.93925 12.765,18.141 12,18.141 L12,18.141 Z" id="Shape" sketch:type="MSShapeGroup"></path>
                <path d="M8.22675,7.14825 C9.33525,6.2895 10.59375,6 12,6 L22.3125,6 C21.24975,4.188 19.8045,2.6565 17.97675,1.59375 C16.14825,0.53175 14.15625,0 12,0 C10.125,0 8.3745,0.39825 6.75,1.1955 C5.12475,1.992 3.621,3.15225 2.51925,4.641 L6,10.5 C6.3435,9.15675 7.11675,8.0085 8.22675,7.14825 L8.22675,7.14825 Z" id="Shape" sketch:type="MSShapeGroup"></path>
                <path d="M23.09775,7.5 L16.125,7.5 C17.34375,8.71875 18.141,10.28175 18.141,12 C18.141,13.28175 17.78175,14.45325 17.0625,15.516 L12.141,24 C15.42225,23.9685 18.219,22.78125 20.532,20.4375 C22.8435,18.09375 24,15.28125 24,12 C24,10.46925 23.742,8.859 23.09775,7.5 L23.09775,7.5 Z" id="Shape" sketch:type="MSShapeGroup"></path>
                <circle id="Oval" sketch:type="MSShapeGroup" cx="12" cy="12" r="4.5"></circle>
            </g>
        </g>
    </g>
</svg>