<svg xmlns="http://www.w3.org/2000/svg" width="20px" height="20px" viewBox="0 0 20 20" version="1.1"><title>Artboard 5</title><desc>Created with Sketch.</desc><g id="Page-1" stroke="none" stroke-width="1" fill="none" fill-rule="evenodd"><g id="Artboard-5" fill="#FFFFFF"><path d="M6.6 18L14.4 18C14.952 18 15 17.553 15 17 15 16.447 14.952 16 14.4 16L6.6 16C6.048 16 6 16.447 6 17 6 17.553 6.048 18 6.6 18L6.6 18Z" id="Path"/><path d="M3.4 16L1.6 16C1.048 16 1 16.447 1 17 1 17.553 1.048 18 1.6 18L3.4 18C3.952 18 4 17.553 4 17 4 16.447 3.952 16 3.4 16L3.4 16Z" id="Path"/><path d="M8.6 13L16.4 13C16.952 13 17 12.553 17 12 17 11.447 16.952 11 16.4 11L8.6 11C8.048 11 8 11.447 8 12 8 12.553 8.048 13 8.6 13L8.6 13Z" id="Path"/><path d="M5.4 11L3.6 11C3.048 11 3 11.447 3 12 3 12.553 3.048 13 3.6 13L5.4 13C5.952 13 6 12.553 6 12 6 11.447 5.952 11 5.4 11L5.4 11Z" id="Path"/><path d="M10.6 8L18.4 8C18.952 8 19 7.553 19 7 19 6.447 18.952 6 18.4 6L10.6 6C10.048 6 10 6.447 10 7 10 7.553 10.048 8 10.6 8L10.6 8Z" id="Path"/><path d="M7.4 6L5.6 6C5.048 6 5 6.447 5 7 5 7.553 5.048 8 5.6 8L7.4 8C7.952 8 8 7.553 8 7 8 6.447 7.952 6 7.4 6L7.4 6Z" id="Path"/></g></g></svg>