<svg xmlns="http://www.w3.org/2000/svg" width="20px" height="20px" viewBox="0 0 20 20" version="1.1"><title>Artboard 6</title><desc>Created with Sketch.</desc><g id="Page-1" stroke="none" stroke-width="1" fill="none" fill-rule="evenodd"><g id="Artboard-6" fill="#FFFFFF"><path d="M9 14L11 14 11 5 13 5 10 1 7 5 9 5 9 14 9 14ZM17 6L14 6 14 8 16 8 16 17 4 17 4 8 6 8 6 6 3 6C2.447 6 2 6.447 2 7L2 18C2 18.552 2.447 19 3 19L17 19C17.553 19 18 18.552 18 18L18 7C18 6.448 17.553 6 17 6L17 6Z" id="Shape"/></g></g></svg>