<?xml version="1.0" encoding="UTF-8" standalone="no"?>
<svg width="32px" height="32px" viewBox="0 0 32 32" version="1.1" xmlns="http://www.w3.org/2000/svg" xmlns:xlink="http://www.w3.org/1999/xlink" xmlns:sketch="http://www.bohemiancoding.com/sketch/ns">
    <!-- Generator: Sketch 3.3 (11970) - http://www.bohemiancoding.com/sketch -->
    <title>link-white</title>
    <desc>Created with Sketch.</desc>
    <defs></defs>
    <g id="Page-1" stroke="none" stroke-width="1" fill="none" fill-rule="evenodd" sketch:type="MSPage">
        <g id="link-white" sketch:type="MSArtboardGroup" fill="#FFFFFF">
            <g id="Group" sketch:type="MSLayerGroup" transform="translate(8.000000, 7.500000)">
                <path d="M5.859,13.691 L5.049,14.496 C4.348,15.191 3.206,15.191 2.504,14.496 C2.168,14.162 1.983,13.717 1.983,13.244 C1.983,12.771 2.169,12.328 2.504,11.992 L5.484,9.037 C6.101,8.424 7.263,7.522 8.11,8.362 C8.499,8.748 9.126,8.746 9.513,8.357 C9.898,7.968 9.896,7.34 9.507,6.955 C8.069,5.527 5.941,5.791 4.088,7.63 L1.108,10.586 C0.393,11.295 0,12.24 0,13.244 C0,14.25 0.394,15.193 1.108,15.902 C1.844,16.632 2.81,16.998 3.777,16.998 C4.744,16.998 5.711,16.633 6.446,15.902 L7.257,15.097 C7.646,14.712 7.648,14.085 7.262,13.697 C6.875,13.309 6.248,13.307 5.859,13.691 L5.859,13.691 Z M14.891,2.207 C13.344,0.673 11.182,0.59 9.752,2.01 L8.743,3.012 C8.354,3.398 8.351,4.025 8.737,4.413 C9.123,4.802 9.75,4.804 10.139,4.418 L11.149,3.417 C11.889,2.681 12.86,2.986 13.495,3.614 C13.831,3.949 14.017,4.393 14.017,4.866 C14.017,5.339 13.831,5.783 13.495,6.117 L10.315,9.271 C8.861,10.712 8.179,10.037 7.888,9.748 C7.499,9.362 6.872,9.365 6.487,9.753 C6.101,10.142 6.103,10.77 6.492,11.154 C7.16,11.816 7.922,12.144 8.72,12.144 C9.697,12.144 10.73,11.652 11.713,10.677 L14.893,7.524 C15.605,6.814 16,5.87 16,4.866 C16,3.861 15.605,2.917 14.891,2.207 L14.891,2.207 Z" id="link-icon" sketch:type="MSShapeGroup"></path>
            </g>
        </g>
    </g>
</svg>