<?xml version="1.0" encoding="UTF-8" standalone="no"?>
<svg width="20px" height="20px" viewBox="0 0 20 20" version="1.1" xmlns="http://www.w3.org/2000/svg" xmlns:xlink="http://www.w3.org/1999/xlink" xmlns:sketch="http://www.bohemiancoding.com/sketch/ns">
    <!-- Generator: Sketch 3.3.1 (12005) - http://www.bohemiancoding.com/sketch -->
    <title>Artboard 2</title>
    <desc>Created with Sketch.</desc>
    <defs></defs>
    <g id="Page-1" stroke="none" stroke-width="1" fill="none" fill-rule="evenodd" sketch:type="MSPage">
        <g id="Artboard-2" sketch:type="MSArtboardGroup" fill="#FFFFFF">
            <g id="complete" sketch:type="MSLayerGroup" transform="translate(1.000000, 5.000000)">
                <g id="Page-1" sketch:type="MSShapeGroup">
                    <g id="Artboard-5">
                        <path d="M5.6,12 L13.4,12 C13.952,12 14,11.553 14,11 C14,10.447 13.952,10 13.4,10 L5.6,10 C5.048,10 5,10.447 5,11 C5,11.553 5.048,12 5.6,12 L5.6,12 L5.6,12 Z" id="Path"></path>
                        <path d="M2.4,10 L0.6,10 C0.048,10 0,10.447 0,11 C0,11.553 0.048,12 0.6,12 L2.4,12 C2.952,12 3,11.553 3,11 C3,10.447 2.952,10 2.4,10 L2.4,10 L2.4,10 Z" id="Path"></path>
                        <path d="M7.6,7 L15.4,7 C15.952,7 16,6.553 16,6 C16,5.447 15.952,5 15.4,5 L7.6,5 C7.048,5 7,5.447 7,6 C7,6.553 7.048,7 7.6,7 L7.6,7 L7.6,7 Z" id="Path"></path>
                        <path d="M4.4,5 L2.6,5 C2.048,5 2,5.447 2,6 C2,6.553 2.048,7 2.6,7 L4.4,7 C4.952,7 5,6.553 5,6 C5,5.447 4.952,5 4.4,5 L4.4,5 L4.4,5 Z" id="Path"></path>
                        <path d="M9.6,2 L17.4,2 C17.952,2 18,1.553 18,1 C18,0.447 17.952,0 17.4,0 L9.6,0 C9.048,0 9,0.447 9,1 C9,1.553 9.048,2 9.6,2 L9.6,2 L9.6,2 Z" id="Path"></path>
                        <path d="M6.4,0 L4.6,0 C4.048,0 4,0.447 4,1 C4,1.553 4.048,2 4.6,2 L6.4,2 C6.952,2 7,1.553 7,1 C7,0.447 6.952,0 6.4,0 L6.4,0 L6.4,0 Z" id="Path"></path>
                    </g>
                </g>
            </g>
        </g>
    </g>
</svg>