<?xml version="1.0" encoding="UTF-8" standalone="no"?>
<svg width="8px" height="8px" viewBox="0 0 8 8" version="1.1" xmlns="http://www.w3.org/2000/svg" xmlns:xlink="http://www.w3.org/1999/xlink" xmlns:sketch="http://www.bohemiancoding.com/sketch/ns">
    <!-- Generator: Sketch 3.3 (11970) - http://www.bohemiancoding.com/sketch -->
    <title>plus</title>
    <desc>Created with Sketch.</desc>
    <defs></defs>
    <g id="Page-1" stroke="none" stroke-width="1" fill="none" fill-rule="evenodd" sketch:type="MSPage">
        <g id="plus" sketch:type="MSLayerGroup" fill="#FFFFFF">
            <path d="M8,4 C8,4.36866667 7.968,4.66666667 7.59933333,4.66666667 L4.66666667,4.66666667 L4.66666667,7.59933333 C4.66666667,7.96733333 4.36866667,8 4,8 C3.63133333,8 3.33333333,7.96733333 3.33333333,7.59933333 L3.33333333,4.66666667 L0.400666667,4.66666667 C0.0326666667,4.66666667 0,4.36866667 0,4 C0,3.63133333 0.0326666667,3.33333333 0.400666667,3.33333333 L3.33333333,3.33333333 L3.33333333,0.400666667 C3.33333333,0.032 3.63133333,0 4,0 C4.36866667,0 4.66666667,0.032 4.66666667,0.400666667 L4.66666667,3.33333333 L7.59933333,3.33333333 C7.968,3.33333333 8,3.63133333 8,4 L8,4 Z" id="Shape" sketch:type="MSShapeGroup"></path>
        </g>
    </g>
</svg>